<svg width="105" height="105" viewBox="0 0 105 105" fill="none" xmlns="http://www.w3.org/2000/svg">
<path d="M103.647 29.5884C106.18 32.1214 104.362 36.4508 100.78 36.4164L96.3122 36.3736C95.2381 36.3633 94.2047 36.7852 93.4451 37.5447L67.9299 63.06C67.3067 63.6832 66.9064 64.4953 66.7919 65.3691L62.84 95.524C62.4085 98.8131 58.3908 100.178 56.0451 97.8318L34.7014 76.4881L7.48885 103.701L4.70265e-06 104.826L0.417778 96.6296L27.6303 69.417L6.28732 48.074C3.94174 45.7282 5.30667 41.7112 8.59577 41.2798L40.379 37.1138C41.2528 36.9993 42.0649 36.599 42.6881 35.9758L67.2815 11.3825C68.041 10.623 68.4635 9.59005 68.4533 8.51607L68.4105 4.04693C68.3761 0.464905 72.7055 -1.35314 75.2385 1.17984L103.647 29.5884Z" fill="#6366F1"/>
</svg>
